<svg width="45" height="52" viewBox="0 0 45 52" fill="none" xmlns="http://www.w3.org/2000/svg">
<path d="M29.7072 48.79L24.3349 33.6276L36.0728 27.5L42.5006 44.4862L34.5597 41.8423L29.7072 48.79Z" stroke="white" stroke-width="2"/>
<path d="M9.41305 32.803L12.667 26L23.9093 32.803L15.8925 48.9493L12.667 41.5768L4.08158 43.9493L8.07275 36.5" stroke="white" stroke-width="2"/>
<path d="M41.0728 17C41.0728 25.8366 33.9093 33 25.0728 33C16.2362 33 9.07275 25.8366 9.07275 17C9.07275 14.8314 9.50365 12.7659 10.2836 10.8826C11.0099 9.12872 12.0396 7.53129 13.3079 6.15608C16.2328 2.98445 20.4203 1 25.0728 1C33.9093 1 41.0728 8.16344 41.0728 17Z" fill="#15375E" stroke="white" stroke-width="2"/>
<path d="M24.3228 24.75C24.3228 25.58 23.6528 26.25 22.8228 26.25C21.9928 26.25 21.3228 25.58 21.3228 24.75C21.3228 23.92 21.9928 23.25 22.8228 23.25C23.6528 23.25 24.3228 23.92 24.3228 24.75ZM29.3228 23.25C28.4928 23.25 27.8228 23.92 27.8228 24.75C27.8228 25.58 28.4928 26.25 29.3228 26.25C30.1528 26.25 30.8228 25.58 30.8228 24.75C30.8228 23.92 30.1528 23.25 29.3228 23.25ZM33.8028 13.68L31.8028 21.68C31.7625 21.843 31.6686 21.9878 31.5362 22.0911C31.4039 22.1945 31.2407 22.2504 31.0728 22.25H21.0728C20.7128 22.25 20.4028 21.99 20.3328 21.63L18.4428 11.25H17.0728C16.6628 11.25 16.3228 10.91 16.3228 10.5C16.3228 10.09 16.6628 9.75 17.0728 9.75H19.0728C19.4328 9.75 19.7428 10.01 19.8128 10.37L20.2428 12.75H33.0728C33.1865 12.7505 33.2986 12.7767 33.4008 12.8266C33.5029 12.8766 33.5925 12.949 33.6627 13.0384C33.7329 13.1279 33.782 13.2321 33.8062 13.3432C33.8305 13.4543 33.8293 13.5694 33.8028 13.68ZM32.1128 14.25H20.5128L21.6928 20.75H30.4828L32.1128 14.25Z" fill="white"/>
</svg>
