<svg width="28" height="26" viewBox="0 0 28 26" fill="none" xmlns="http://www.w3.org/2000/svg">
<path d="M12.875 23.125C12.875 24.37 11.87 25.375 10.625 25.375C9.38 25.375 8.375 24.37 8.375 23.125C8.375 21.88 9.38 20.875 10.625 20.875C11.87 20.875 12.875 21.88 12.875 23.125ZM20.375 20.875C19.13 20.875 18.125 21.88 18.125 23.125C18.125 24.37 19.13 25.375 20.375 25.375C21.62 25.375 22.625 24.37 22.625 23.125C22.625 21.88 21.62 20.875 20.375 20.875ZM27.095 6.52L24.095 18.52C24.0345 18.7645 23.8938 18.9817 23.6952 19.1367C23.4967 19.2917 23.2519 19.3756 23 19.375H8C7.46 19.375 6.995 18.985 6.89 18.445L4.055 2.875H2C1.385 2.875 0.875 2.365 0.875 1.75C0.875 1.135 1.385 0.625 2 0.625H5C5.54 0.625 6.005 1.015 6.11 1.555L6.755 5.125H26C26.1706 5.12572 26.3388 5.16501 26.492 5.23993C26.6453 5.31486 26.7796 5.42348 26.8849 5.55766C26.9902 5.69184 27.0638 5.8481 27.1002 6.01475C27.1366 6.18141 27.1348 6.35413 27.095 6.52ZM24.56 7.375H7.16L8.93 17.125H22.115L24.56 7.375Z" fill="white"/>
</svg>
