<svg width="14" height="16" viewBox="0 0 14 16" fill="none" xmlns="http://www.w3.org/2000/svg">
<path d="M11.25 15.0834C10.6597 15.0834 10.158 14.8768 9.74479 14.4636C9.3316 14.0504 9.125 13.5487 9.125 12.9584C9.125 12.8758 9.1309 12.7901 9.14271 12.7013C9.15451 12.6125 9.17222 12.5329 9.19583 12.4626L4.20208 9.55842C4.00139 9.7355 3.77708 9.87433 3.52917 9.97492C3.28125 10.0755 3.02153 10.1256 2.75 10.1251C2.15972 10.1251 1.65799 9.91848 1.24479 9.50529C0.831597 9.0921 0.625 8.59036 0.625 8.00008C0.625 7.4098 0.831597 6.90807 1.24479 6.49487C1.65799 6.08168 2.15972 5.87508 2.75 5.87508C3.02153 5.87508 3.28125 5.92537 3.52917 6.02596C3.77708 6.12654 4.00139 6.26514 4.20208 6.44175L9.19583 3.53758C9.17222 3.46675 9.15451 3.38718 9.14271 3.29887C9.1309 3.21057 9.125 3.12486 9.125 3.04175C9.125 2.45147 9.3316 1.94973 9.74479 1.53654C10.158 1.12335 10.6597 0.916748 11.25 0.916748C11.8403 0.916748 12.342 1.12335 12.7552 1.53654C13.1684 1.94973 13.375 2.45147 13.375 3.04175C13.375 3.63203 13.1684 4.13376 12.7552 4.54696C12.342 4.96015 11.8403 5.16675 11.25 5.16675C10.9785 5.16675 10.7187 5.11669 10.4708 5.01658C10.2229 4.91647 9.99861 4.77764 9.79792 4.60008L4.80417 7.50425C4.82778 7.57508 4.84549 7.65489 4.85729 7.74366C4.8691 7.83244 4.875 7.91792 4.875 8.00008C4.875 8.08272 4.8691 8.16843 4.85729 8.25721C4.84549 8.34598 4.82778 8.42555 4.80417 8.49591L9.79792 11.4001C9.99861 11.223 10.2229 11.0844 10.4708 10.9843C10.7187 10.8842 10.9785 10.8339 11.25 10.8334C11.8403 10.8334 12.342 11.04 12.7552 11.4532C13.1684 11.8664 13.375 12.3681 13.375 12.9584C13.375 13.5487 13.1684 14.0504 12.7552 14.4636C12.342 14.8768 11.8403 15.0834 11.25 15.0834Z" fill="#49C2ED"/>
</svg>
