<svg width="16" height="15" viewBox="0 0 16 15" fill="none" xmlns="http://www.w3.org/2000/svg">
<g id="ion:heart">
<path id="Vector" d="M7.99998 13.125C7.79926 13.1248 7.60326 13.0679 7.43748 12.9618C4.98154 11.3988 3.91811 10.3271 3.33154 9.65713C2.08154 8.22891 1.48311 6.7626 1.49998 5.17471C1.51967 3.35508 3.07686 1.875 4.97123 1.875C6.34873 1.875 7.30279 2.60244 7.85842 3.2083C7.87602 3.2273 7.89777 3.24253 7.92219 3.25297C7.94661 3.26341 7.97314 3.26882 7.99998 3.26882C8.02682 3.26882 8.05335 3.26341 8.07777 3.25297C8.1022 3.24253 8.12394 3.2273 8.14154 3.2083C8.69717 2.60186 9.65123 1.875 11.0287 1.875C12.9231 1.875 14.4803 3.35508 14.5 5.175C14.5169 6.76318 13.9178 8.22949 12.6684 9.65742C12.0819 10.3274 11.0184 11.3991 8.56248 12.9621C8.39666 13.0681 8.20067 13.1248 7.99998 13.125Z" fill="#49C2ED"/>
</g>
</svg>
