<svg width="18" height="25" viewBox="0 0 18 25" fill="none" xmlns="http://www.w3.org/2000/svg">
<path d="M8.66718 19.0708V13.3204M8.66718 13.3204C9.18438 13.3208 9.69957 13.2512 10.2005 13.1134M8.66718 13.3204C8.14997 13.3208 7.63479 13.2512 7.13384 13.1134M10.9672 21.3041C9.44742 21.6133 7.88693 21.6133 6.36718 21.3041M10.2005 23.9142C9.18107 24.0286 8.15328 24.0286 7.13384 23.9142M10.9672 19.0708V18.8605C10.9672 17.7838 11.6398 16.8637 12.5087 16.3237C13.9684 15.4179 15.1086 14.0216 15.7526 12.3511C16.3966 10.6805 16.5084 8.82904 16.0708 7.08349C15.6331 5.33794 14.6704 3.79577 13.3318 2.69593C11.9933 1.5961 10.3535 1 8.66667 1C6.97983 1 5.34008 1.5961 4.00149 2.69593C2.6629 3.79577 1.70019 5.33794 1.26254 7.08349C0.824887 8.82904 0.936722 10.6805 1.58072 12.3511C2.22471 14.0216 3.36491 15.4179 4.82465 16.3237C5.69353 16.8637 6.36718 17.7838 6.36718 18.8605V19.0708" stroke="url(#paint0_linear_400_410)" stroke-width="1.5" stroke-linecap="round" stroke-linejoin="round"/>
<defs>
<linearGradient id="paint0_linear_400_410" x1="8.66667" y1="1" x2="8.66667" y2="26.875" gradientUnits="userSpaceOnUse">
<stop stop-color="#49C2ED"/>
<stop offset="1" stop-color="#191B36"/>
</linearGradient>
</defs>
</svg>
