<svg width="32" height="31" viewBox="0 0 32 31" fill="none" xmlns="http://www.w3.org/2000/svg">
<circle cx="15.9999" cy="15.5326" r="15.4672" fill="#49C2ED"/>
<path d="M11.345 11.6168C11.3417 11.5512 11.3263 11.487 11.2997 11.4277C11.2731 11.3685 11.2358 11.3155 11.19 11.2716C11.1442 11.2277 11.0907 11.1939 11.0326 11.1721C10.9746 11.1503 10.9131 11.1409 10.8516 11.1444C10.7901 11.148 10.7299 11.1644 10.6744 11.1928C10.6188 11.2211 10.5691 11.2609 10.528 11.3098C10.4869 11.3587 10.4552 11.4157 10.4347 11.4776C10.4143 11.5396 10.4054 11.6052 10.4088 11.6708L11.345 11.6168ZM11.9488 9.06143C11.8667 9.15819 11.8233 9.28535 11.8279 9.41575C11.8325 9.54615 11.8847 9.66946 11.9734 9.75936C12.0621 9.84925 12.1802 9.8986 12.3026 9.89687C12.4249 9.89514 12.5417 9.84247 12.6281 9.7501L11.9488 9.06143ZM15.665 20.2081C15.7171 20.2439 15.7754 20.2684 15.8364 20.28C15.8975 20.2917 15.9601 20.2903 16.0206 20.2759C16.0812 20.2616 16.1384 20.2345 16.1891 20.1964C16.2398 20.1583 16.2829 20.1098 16.3158 20.0538C16.3488 19.9978 16.3711 19.9354 16.3813 19.8702C16.3915 19.8049 16.3895 19.7382 16.3753 19.6738C16.3612 19.6094 16.3352 19.5486 16.2989 19.495C16.2626 19.4414 16.2166 19.396 16.1638 19.3614L15.665 20.2081ZM18.4456 20.3721C18.3239 20.345 18.197 20.3705 18.0929 20.4432C17.9889 20.5158 17.9161 20.6296 17.8906 20.7594C17.8652 20.8893 17.8892 21.0246 17.9573 21.1357C18.0254 21.2467 18.132 21.3243 18.2538 21.3514L18.4456 20.3721ZM18.7781 17.3628L19.0625 17.0428L18.3825 16.3541L18.0981 16.6741L18.7781 17.3628ZM19.9994 16.9081L21.1931 17.6414L21.6606 16.7748L20.4669 16.0414L19.9994 16.9081ZM21.4238 19.1614L20.5356 20.1581L21.2156 20.8474L22.1031 19.8501L21.4238 19.1614ZM14.2244 17.6394C11.8019 14.9188 11.3956 12.6234 11.345 11.6168L10.4088 11.6708C10.4713 12.9041 10.9613 15.4268 13.545 18.3281L14.2244 17.6394ZM15.0844 13.2148L15.2631 13.0134L14.5838 12.3248L14.4044 12.5261L15.0844 13.2148ZM15.4044 10.5068L14.6163 9.3181L13.8506 9.89543L14.6381 11.0841L15.4044 10.5068ZM14.7444 12.8701C14.6319 12.7545 14.5177 12.64 14.4031 12.5268L14.4019 12.5281L14.4 12.5301C14.3889 12.5423 14.3785 12.5553 14.3688 12.5688C14.3075 12.6553 14.259 12.7513 14.225 12.8534C14.1638 13.0368 14.1313 13.2794 14.1725 13.5821C14.2538 14.1768 14.6194 14.9761 15.5738 16.0488L16.2544 15.3594C15.3619 14.3574 15.1413 13.7408 15.1 13.4368C15.08 13.2901 15.1 13.2134 15.1081 13.1888L15.1131 13.1761C15.108 13.1849 15.1022 13.1931 15.0956 13.2008C15.092 13.2053 15.0882 13.2104 15.0844 13.2148L14.7444 12.8701ZM15.5738 16.0488C16.5256 17.1181 17.2444 17.5374 17.7925 17.6328C18.0744 17.6814 18.3025 17.6421 18.475 17.5694C18.5706 17.5294 18.6595 17.4731 18.7381 17.4028L18.7606 17.3801L18.7694 17.3708C18.7709 17.3695 18.7723 17.3681 18.7738 17.3668L18.7756 17.3648L18.7763 17.3634C18.7763 17.3634 18.7775 17.3628 18.4375 17.0181C18.0975 16.6741 18.0981 16.6734 18.0981 16.6728L18.0994 16.6721L18.1006 16.6701L18.1044 16.6668C18.1138 16.657 18.1236 16.6477 18.1338 16.6388C18.1394 16.6348 18.1388 16.6361 18.1306 16.6394C18.1181 16.6448 18.0619 16.6661 17.9431 16.6454C17.6919 16.6014 17.15 16.3654 16.2544 15.3594L15.5738 16.0488ZM14.6163 9.3181C13.9825 8.3621 12.715 8.2001 11.9488 9.06143L12.6281 9.7501C12.955 9.38343 13.5306 9.4121 13.8506 9.89543L14.6163 9.3181ZM20.5356 20.1581C20.3613 20.3541 20.1794 20.4594 20.0019 20.4781L20.0938 21.4728C20.5606 21.4241 20.9388 21.1588 21.2156 20.8474L20.5356 20.1581ZM15.2631 13.0134C15.8681 12.3341 15.9106 11.2714 15.4044 10.5068L14.6381 11.0841C14.9019 11.4821 14.8619 12.0128 14.5838 12.3248L15.2631 13.0134ZM21.1931 17.6414C21.7063 17.9568 21.8069 18.7314 21.4238 19.1614L22.1031 19.8501C22.9188 18.9341 22.6806 17.4014 21.6606 16.7748L21.1931 17.6414ZM19.0625 17.0428C19.3031 16.7721 19.6788 16.7114 19.9994 16.9081L20.4669 16.0414C19.78 15.6201 18.9294 15.7408 18.3825 16.3541L19.0625 17.0428ZM16.1638 19.3614C15.5494 18.9494 14.895 18.3921 14.2244 17.6394L13.545 18.3281C14.2663 19.1381 14.9806 19.7494 15.665 20.2081L16.1638 19.3614ZM20.0019 20.4781C19.4813 20.5269 18.9562 20.4911 18.4456 20.3721L18.2538 21.3514C18.8578 21.491 19.4782 21.5319 20.0938 21.4728L20.0019 20.4781Z" fill="white"/>
</svg>
