<svg width="36" height="52" viewBox="0 0 36 52" fill="none" xmlns="http://www.w3.org/2000/svg">
<path d="M31.2249 4.02513C30.5685 3.36875 29.6783 3 28.75 3H9.25C8.32174 3 7.4315 3.36875 6.77513 4.02513C6.11875 4.6815 5.75 5.57174 5.75 6.5V31.375C5.75 32.1344 5.13439 32.75 4.375 32.75C3.61561 32.75 3 32.1344 3 31.375V6.5C3 4.8424 3.65848 3.25268 4.83058 2.08058C6.00268 0.90848 7.5924 0.25 9.25 0.25H28.75C30.4076 0.25 31.9973 0.90848 33.1694 2.08058C34.3415 3.25268 35 4.8424 35 6.5V45.5C35 47.1576 34.3415 48.7473 33.1694 49.9194C31.9973 51.0915 30.4076 51.75 28.75 51.75H9.25C7.5924 51.75 6.00268 51.0915 4.83058 49.9194C3.65848 48.7473 3 47.1576 3 45.5V41.625C3 40.8656 3.61561 40.25 4.375 40.25C5.13439 40.25 5.75 40.8656 5.75 41.625V45.5C5.75 46.4283 6.11875 47.3185 6.77513 47.9749C7.4315 48.6312 8.32174 49 9.25 49H28.75C29.6783 49 30.5685 48.6312 31.2249 47.9749C31.8813 47.3185 32.25 46.4283 32.25 45.5V6.5C32.25 5.57174 31.8813 4.6815 31.2249 4.02513Z" fill="white" stroke="#15375E" stroke-width="0.5" stroke-linejoin="round"/>
<path fill-rule="evenodd" clip-rule="evenodd" d="M18.75 13.5C17.0244 13.5 15.625 14.9988 15.625 16.8481V29.5969C14.8163 30.2443 14.2287 31.1269 13.9434 32.1228C13.6581 33.1186 13.6891 34.1785 14.0322 35.156C14.3753 36.1334 15.0135 36.9802 15.8586 37.5792C16.7038 38.1782 17.7141 38.5 18.75 38.5C19.7859 38.5 20.7962 38.1782 21.6414 37.5792C22.4865 36.9802 23.1247 36.1334 23.4678 35.156C23.8109 34.1785 23.8419 33.1186 23.5566 32.1228C23.2713 31.1269 22.6837 30.2443 21.875 29.5969V16.8481C21.875 14.9988 20.4756 13.5 18.75 13.5ZM20.625 24.7881C19.7144 24.8031 18.8613 24.5819 18.1138 24.3881C17.6575 24.2694 17.2413 24.1619 16.875 24.1244V16.8481C16.875 15.7388 17.7144 14.8394 18.75 14.8394C19.7856 14.8394 20.625 15.7388 20.625 16.8481V17.235H19.375C19.2092 17.235 19.0503 17.3008 18.9331 17.4181C18.8158 17.5353 18.75 17.6942 18.75 17.86C18.75 18.0258 18.8158 18.1847 18.9331 18.3019C19.0503 18.4192 19.2092 18.485 19.375 18.485H20.625V19.735H19.375C19.2092 19.735 19.0503 19.8008 18.9331 19.9181C18.8158 20.0353 18.75 20.1942 18.75 20.36C18.75 20.5258 18.8158 20.6847 18.9331 20.8019C19.0503 20.9192 19.2092 20.985 19.375 20.985H20.625V22.235H19.375C19.2092 22.235 19.0503 22.3008 18.9331 22.4181C18.8158 22.5353 18.75 22.6942 18.75 22.86C18.75 23.0258 18.8158 23.1847 18.9331 23.3019C19.0503 23.4192 19.2092 23.485 19.375 23.485H20.625V24.7881Z" fill="white"/>
</svg>
