<svg width="32" height="31" viewBox="0 0 32 31" fill="none" xmlns="http://www.w3.org/2000/svg">
<circle cx="15.9999" cy="15.4672" r="15.4672" fill="#49C2ED"/>
<path d="M16 22L15.6923 21.6795C15.5 21.5014 11 16.5863 11 13.6301C11 12.4034 11.5105 11.2908 12.3462 10.4638L12.9403 10.9176C12.214 11.6202 11.7692 12.5747 11.7692 13.6301C11.7692 15.9096 15 19.7562 16 20.8959C17 19.7562 20.2308 15.9096 20.2308 13.6301C20.2308 11.4575 18.3462 9.71233 16 9.71233C15.4711 9.71233 14.9657 9.80102 14.5 9.96329L14 9.38286C14.6119 9.13649 15.2882 9 16 9C18.7692 9 21 11.0658 21 13.6301C21 16.5863 16.5 21.5014 16.3077 21.7151L16 22Z" fill="white"/>
<path d="M16 15C14.88 15 14 14.34 14 13.5C14 12.66 14.88 12 16 12C17.12 12 18 12.66 18 13.5C18 14.34 17.12 15 16 15ZM16 12.6C15.32 12.6 14.8 12.99 14.8 13.5C14.8 14.01 15.32 14.4 16 14.4C16.68 14.4 17.2 14.01 17.2 13.5C17.2 12.99 16.68 12.6 16 12.6Z" fill="white"/>
</svg>
