<svg width="52" height="52" viewBox="0 0 52 52" fill="none" xmlns="http://www.w3.org/2000/svg">
<path d="M4 21.4956V11.2309C7.96373 11.8268 12.0064 11.2839 15.7022 9.65939C19.398 8.03484 22.6101 5.38879 25 2C29.375 8.72009 36.62 11.8955 46 11.2309V21.4956C45.9873 27.4225 44.2849 33.2082 41.114 38.1008C37.9431 42.9934 33.4505 46.7666 28.22 48.9298L26.155 49.7791C25.4103 50.0736 24.5897 50.0736 23.845 49.7791L21.78 48.9298C16.5495 46.7666 11.1145 41.9993 7.94368 37.1067C6.31875 34.5995 6.02176 32.8518 5.19787 29.9767" stroke="white" stroke-width="2.2" stroke-linecap="round" stroke-linejoin="round"/>
<path d="M19.1177 17.8235V19.3529H20.6471V22.4117C20.6481 23.3363 20.8885 24.2449 21.3449 25.049C21.8014 25.853 22.4583 26.5252 23.2517 27C22.4583 27.4747 21.8014 28.1469 21.3449 28.951C20.8885 29.755 20.6481 30.6636 20.6471 31.5882V34.647H19.1177V36.1764H32.8824V34.647H31.353V31.5882C31.352 30.6636 31.1116 29.755 30.6551 28.951C30.1987 28.1469 29.5418 27.4747 28.7484 27C29.5418 26.5252 30.1987 25.853 30.6551 25.049C31.1116 24.2449 31.352 23.3363 31.353 22.4117V19.3529H32.8824V17.8235H19.1177ZM22.1765 19.3529H29.8236V22.4117C29.8236 24.5323 28.1206 26.2353 26 26.2353C23.8795 26.2353 22.1765 24.5323 22.1765 22.4117V19.3529ZM23.0605 23.1764C23.4016 24.494 24.5746 25.4705 26 25.4705C27.4247 25.4705 28.5985 24.494 28.9396 23.1764H23.0605ZM26 27.7647C28.1206 27.7647 29.8236 29.4677 29.8236 31.5882V34.647H29.0589C29.0589 32.957 27.69 31.5882 26 31.5882C24.31 31.5882 22.9412 32.957 22.9412 34.647H22.1765V31.5882C22.1765 29.4677 23.8795 27.7647 26 27.7647Z" fill="white"/>
</svg>
