<svg width="24" height="24" viewBox="0 0 24 24" fill="none" xmlns="http://www.w3.org/2000/svg">
<path d="M13.1993 0.334443C14.0507 0.331176 14.9021 0.339733 15.7532 0.36011L15.9795 0.368277C16.2408 0.37761 16.4987 0.389277 16.8102 0.403277C18.0515 0.46161 18.8985 0.65761 19.6417 0.945777C20.4117 1.24211 21.0603 1.64344 21.709 2.29211C22.3021 2.87498 22.7611 3.58005 23.0542 4.35828C23.3423 5.10144 23.5383 5.94961 23.5967 7.19094C23.6107 7.50128 23.6223 7.76028 23.6317 8.02161L23.6387 8.24794C23.6594 9.09867 23.6684 9.94964 23.6655 10.8006L23.6667 11.6709V13.1993C23.6696 14.0506 23.6606 14.902 23.6398 15.7531L23.6328 15.9794C23.6235 16.2408 23.6118 16.4986 23.5978 16.8101C23.5395 18.0514 23.3412 18.8984 23.0542 19.6416C22.7621 20.4207 22.303 21.1263 21.709 21.7089C21.1256 22.302 20.4202 22.761 19.6417 23.0541C18.8985 23.3423 18.0515 23.5383 16.8102 23.5966C16.4987 23.6106 16.2408 23.6223 15.9795 23.6316L15.7532 23.6386C14.9021 23.6594 14.0507 23.6683 13.1993 23.6654L12.329 23.6666H10.8018C9.95048 23.6695 9.09912 23.6605 8.24801 23.6398L8.02168 23.6328C7.74472 23.6227 7.46783 23.6111 7.19101 23.5978C5.94968 23.5394 5.10268 23.3411 4.35835 23.0541C3.57981 22.7617 2.87462 22.3026 2.29218 21.7089C1.6984 21.1259 1.23894 20.4204 0.945845 19.6416C0.657679 18.8984 0.461679 18.0514 0.403345 16.8101C0.390352 16.5333 0.378685 16.2564 0.368345 15.9794L0.362512 15.7531C0.341003 14.902 0.33128 14.0506 0.333345 13.1993V10.8006C0.330089 9.94964 0.338646 9.09867 0.359012 8.24794L0.367179 8.02161C0.376512 7.76028 0.388179 7.50128 0.402179 7.19094C0.460512 5.94844 0.656512 5.10261 0.944678 4.35828C1.23795 3.57967 1.6983 2.8748 2.29335 2.29328C2.87539 1.69915 3.58013 1.23928 4.35835 0.945777C5.10268 0.65761 5.94851 0.46161 7.19101 0.403277L8.02168 0.368277L8.24801 0.362443C9.09873 0.340945 9.9497 0.331222 10.8007 0.333277L13.1993 0.334443ZM12 6.16778C11.2271 6.15685 10.4597 6.29964 9.74248 6.58786C9.02524 6.87607 8.37243 7.30397 7.822 7.84667C7.27156 8.38938 6.83448 9.03607 6.53615 9.74917C6.23781 10.4623 6.08418 11.2275 6.08418 12.0005C6.08418 12.7735 6.23781 13.5388 6.53615 14.2519C6.83448 14.965 7.27156 15.6117 7.822 16.1544C8.37243 16.6971 9.02524 17.125 9.74248 17.4132C10.4597 17.7014 11.2271 17.8442 12 17.8333C13.5471 17.8333 15.0308 17.2187 16.1248 16.1247C17.2188 15.0308 17.8333 13.547 17.8333 11.9999C17.8333 10.4528 17.2188 8.96912 16.1248 7.87515C15.0308 6.78119 13.5471 6.16778 12 6.16778ZM12 8.50111C12.4649 8.49254 12.9269 8.57671 13.3589 8.74869C13.791 8.92066 14.1844 9.17701 14.5163 9.50275C14.8481 9.82848 15.1117 10.2171 15.2917 10.6458C15.4717 11.0746 15.5644 11.5349 15.5645 11.9999C15.5646 12.4649 15.472 12.9253 15.2921 13.3541C15.1123 13.7829 14.8488 14.1716 14.5171 14.4975C14.1853 14.8233 13.792 15.0798 13.36 15.2519C12.928 15.424 12.4661 15.5084 12.0012 15.4999C11.0729 15.4999 10.1827 15.1312 9.5263 14.4748C8.86993 13.8184 8.50118 12.9282 8.50118 11.9999C8.50118 11.0717 8.86993 10.1814 9.5263 9.52507C10.1827 8.86869 11.0729 8.49994 12.0012 8.49994L12 8.50111ZM18.125 4.41778C17.7486 4.43284 17.3927 4.59295 17.1317 4.86458C16.8707 5.1362 16.725 5.49827 16.725 5.87494C16.725 6.25162 16.8707 6.61369 17.1317 6.88531C17.3927 7.15693 17.7486 7.31705 18.125 7.33211C18.5118 7.33211 18.8827 7.17846 19.1562 6.90497C19.4297 6.63148 19.5833 6.26055 19.5833 5.87378C19.5833 5.487 19.4297 5.11607 19.1562 4.84258C18.8827 4.56909 18.5118 4.41544 18.125 4.41544V4.41778Z" fill="#191B36"/>
</svg>
