<svg width="24" height="24" viewBox="0 0 24 24" fill="none" xmlns="http://www.w3.org/2000/svg">
<path d="M23.9427 4.96611C23.9996 5.10312 24.0145 5.25392 23.9857 5.39943C23.9569 5.54495 23.8855 5.67864 23.7807 5.78361L20.7807 8.78361C20.711 8.85321 20.6281 8.90838 20.537 8.94596C20.4459 8.98353 20.3483 9.00279 20.2497 9.00261H16.0603L14.0308 11.0321C14.2596 11.5111 14.3117 12.0555 14.1779 12.5691C14.0441 13.0827 13.733 13.5325 13.2996 13.839C12.8663 14.1454 12.3385 14.2888 11.8097 14.2438C11.2808 14.1987 10.7849 13.9682 10.4096 13.5929C10.0343 13.2176 9.80374 12.7216 9.75871 12.1928C9.71368 11.6639 9.85706 11.1362 10.1635 10.7028C10.47 10.2694 10.9198 9.95835 11.4334 9.82455C11.947 9.69075 12.4914 9.74284 12.9703 9.97161L14.9998 7.94211V3.75261C14.9996 3.65405 15.0189 3.55643 15.0565 3.46531C15.094 3.3742 15.1492 3.29139 15.2188 3.22161L18.2188 0.221609C18.3237 0.116449 18.4574 0.0448024 18.6031 0.0157522C18.7487 -0.013298 18.8997 0.00155665 19.037 0.0584329C19.1742 0.115309 19.2914 0.211646 19.3738 0.335229C19.4562 0.458813 19.5 0.604078 19.4998 0.752609V4.50261H23.2497C23.3981 4.50263 23.5432 4.54669 23.6665 4.6292C23.7899 4.7117 23.886 4.82895 23.9427 4.96611ZM21.4392 6.00261H18.7498C18.5509 6.00261 18.3601 5.92359 18.2194 5.78294C18.0788 5.64229 17.9998 5.45152 17.9998 5.25261V2.56311L16.4998 4.06311V7.50261H19.9392L21.4392 6.00261ZM23.4102 8.27511C23.7927 9.44811 23.9997 10.7021 23.9997 12.0026C23.9991 14.5375 23.1959 17.0071 21.7051 19.0573C20.2143 21.1075 18.1126 22.6329 15.7013 23.4148C13.2901 24.1968 10.6931 24.195 8.2829 23.4098C5.8727 22.6246 3.77304 21.0964 2.28504 19.0442C0.797036 16.992 -0.00287828 14.5212 7.7822e-06 11.9863C0.00289385 9.45143 0.808432 6.98255 2.30111 4.93374C3.79378 2.88493 5.89691 1.36144 8.30889 0.581747C10.7209 -0.197949 13.3178 -0.193796 15.7273 0.593609L14.5153 1.80561C12.2887 1.2566 9.94363 1.45166 7.83834 2.36098C5.73305 3.27031 3.98336 4.84389 2.85659 6.84128C1.72983 8.83868 1.28798 11.1501 1.59854 13.4222C1.9091 15.6944 2.955 17.8024 4.57643 19.4242C6.19785 21.0459 8.30564 22.0923 10.5777 22.4033C12.8498 22.7143 15.1612 22.2729 17.1588 21.1465C19.1564 20.0201 20.7303 18.2707 21.64 16.1656C22.5498 14.0604 22.7453 11.7153 22.1967 9.48861L23.4102 8.27511ZM19.3498 10.5026C19.6719 12.0822 19.4765 13.7236 18.7925 15.1834C18.1086 16.6432 16.9724 17.8438 15.5525 18.6072C14.1326 19.3706 12.5046 19.6561 10.9096 19.4215C9.31469 19.1869 7.83781 18.4446 6.69789 17.3046C5.55796 16.1647 4.81568 14.6878 4.58106 13.0928C4.34645 11.4979 4.63199 9.8698 5.39536 8.44988C6.15873 7.02996 7.3593 5.89381 8.8191 5.20983C10.2789 4.52586 11.9202 4.33046 13.4998 4.65261V6.19161C12.2255 5.86287 10.8785 5.96221 9.66626 6.47432C8.45399 6.98643 7.44371 7.8829 6.79104 9.02566C6.13836 10.1684 5.87949 11.4941 6.05431 12.7984C6.22912 14.1028 6.82792 15.3135 7.75847 16.244C8.68902 17.1746 9.89971 17.7734 11.204 17.9482C12.5084 18.123 13.834 17.8642 14.9768 17.2115C16.1195 16.5588 17.016 15.5485 17.5281 14.3362C18.0402 13.1239 18.1395 11.7769 17.8108 10.5026H19.3498Z" fill="url(#paint0_linear_400_406)"/>
<defs>
<linearGradient id="paint0_linear_400_406" x1="15.5" y1="7" x2="3.5" y2="19.5" gradientUnits="userSpaceOnUse">
<stop stop-color="#49C2ED"/>
<stop offset="1" stop-color="#191B36"/>
</linearGradient>
</defs>
</svg>
