<svg width="50" height="52" viewBox="0 0 50 52" fill="none" xmlns="http://www.w3.org/2000/svg">
<g id="Group 100">
<path id="Vector" d="M25 38L20 42.875M25 38L30 42.875M25 38V46.5312M25 51V48.9688" stroke="white" stroke-width="1.5" stroke-linecap="round" stroke-linejoin="round"/>
<path id="Vector_2" d="M32.5358 14.7279L39.5184 14.8163M32.5358 14.7279L32.4474 7.74521M32.5358 14.7279L38.5683 8.69539M41.7281 5.53551L40.2918 6.97182" stroke="white" stroke-width="1.5" stroke-linecap="round" stroke-linejoin="round"/>
<path id="Vector_3" d="M16.1376 15.2504L17.0708 8.32981M16.1376 15.2504L9.1956 14.4927M16.1376 15.2504L10.8799 8.53192M8.12579 5.01271L9.37764 6.61235" stroke="white" stroke-width="1.5" stroke-linecap="round" stroke-linejoin="round"/>
<path id="Ellipse 120" d="M14.5 4.53118C17.6478 2.9132 21.2172 2 25 2C29.1893 2 33.117 3.12003 36.5 5.07699M7.14548 10.5C3.92835 14.4566 2 19.5031 2 25C2 35.9854 9.70163 45.1721 20 47.455M30 47.455C40.2984 45.1721 48 35.9854 48 25C48 19.5864 46.1297 14.6097 43 10.6808" stroke="white" stroke-width="2.2" stroke-linejoin="round"/>
<circle id="Ellipse 121" cx="25" cy="25" r="6" stroke="white" stroke-width="2"/>
</g>
</svg>
