<svg width="41" height="53" viewBox="0 0 41 53" fill="none" xmlns="http://www.w3.org/2000/svg">
<path d="M29.5566 14.3165H29.5566V14.3125C29.5566 13.0904 29.3237 11.9334 28.8567 10.8439C28.5249 10.0696 28.0848 9.35894 27.5371 8.71269C27.2467 8.37006 27.2446 7.87792 27.5315 7.58135L28.6489 6.42626C28.941 6.12436 29.4084 6.12679 29.6699 6.42172C30.5282 7.38965 31.2081 8.45726 31.7108 9.6252C32.3389 11.0846 32.6629 12.6467 32.6816 14.3139C32.6815 15.9609 32.367 17.5127 31.7391 18.9715C31.2348 20.1432 30.5459 21.2203 29.671 22.2033C29.4086 22.4982 28.9408 22.5004 28.6488 22.1986L27.5238 21.0357C27.239 20.7413 27.2386 20.2539 27.5235 19.9118C28.0616 19.2655 28.4967 18.555 28.8284 17.7811C29.2948 16.6929 29.5372 15.5373 29.5566 14.3165ZM10.8184 14.3085L10.8184 14.3085V14.3125C10.8184 15.5346 11.0513 16.6916 11.5183 17.7811C11.8501 18.5554 12.2902 19.2661 12.8379 19.9123C13.1283 20.2549 13.1304 20.7471 12.8435 21.0436L11.7261 22.1987C11.434 22.5006 10.9666 22.4982 10.7051 22.2033C9.84685 21.2353 9.16686 20.1677 8.66421 18.9998C8.03612 17.5404 7.71205 15.9783 7.69336 14.3111C7.69354 12.6641 8.00804 11.1123 8.63589 9.65352C9.14015 8.48184 9.82911 7.40472 10.704 6.42167C10.9664 6.12676 11.4342 6.12459 11.7262 6.42644L12.8512 7.58933C13.136 7.88371 13.1364 8.37109 12.8515 8.71324C12.3134 9.35952 11.8783 10.07 11.5466 10.8439C11.0802 11.9321 10.8378 13.0877 10.8184 14.3085ZM3.56837 14.3103H3.56836V14.3125C3.56836 16.5166 3.9902 18.608 4.83455 20.5845C5.54983 22.2589 6.54047 23.7814 7.80516 25.1512C8.09665 25.4669 8.09922 25.9478 7.81336 26.2433L6.6819 27.4129C6.39212 27.7125 5.92414 27.7146 5.65084 27.4234C4.99519 26.7249 4.39652 25.9797 3.85476 25.1879C3.12698 24.1243 2.50191 23.0047 1.97943 21.8291C1.45859 20.6572 1.07726 19.4389 0.835397 18.1738C0.592829 16.9049 0.462128 15.6173 0.443359 14.3107C0.443478 13.0065 0.573947 11.7213 0.834708 10.4547C1.09568 9.18713 1.47771 7.9666 1.98076 6.79282C2.48407 5.61844 3.09924 4.49991 3.82644 3.43707C4.37123 2.64085 4.97892 1.89174 5.64965 1.18967C5.92335 0.903183 6.38727 0.90751 6.67508 1.20502L7.81321 2.38151C8.09907 2.67701 8.09657 3.15813 7.80516 3.47447C6.55761 4.82875 5.57651 6.34158 4.86287 8.01214C4.0187 9.98827 3.58752 12.0884 3.56837 14.3103ZM33.6931 1.21207C33.9829 0.912527 34.4509 0.91041 34.7242 1.20159C35.3798 1.90014 35.9785 2.64527 36.5202 3.43707C37.248 4.50075 37.8731 5.6203 38.3956 6.79587C38.9164 7.96777 39.2977 9.1861 39.5396 10.4512C39.7822 11.72 39.9129 13.0076 39.9316 14.3142C39.9315 15.6184 39.8011 16.9037 39.5403 18.1703C39.2793 19.4379 38.8973 20.6584 38.3942 21.8322C37.8909 23.0066 37.2758 24.1251 36.5486 25.1879C36.0038 25.9841 35.3961 26.7333 34.7253 27.4353C34.4517 27.7218 33.9877 27.7175 33.6999 27.42L32.5618 26.2435C32.2759 25.948 32.2784 25.4669 32.5698 25.1505C33.8174 23.7962 34.7985 22.2834 35.5121 20.6129C36.3563 18.6367 36.7875 16.5366 36.8066 14.3147V14.3125C36.8066 12.1084 36.3848 10.017 35.5404 8.04046C34.8252 6.36606 33.8345 4.84361 32.5698 3.4738C32.2784 3.15807 32.2758 2.67717 32.5616 2.38167L32.382 2.20785L32.5616 2.38167L33.6931 1.21207ZM25.375 14.3125C25.375 15.1256 25.2036 15.881 24.8622 16.5819C24.6159 17.0874 24.2902 17.5416 23.8841 17.9452C23.5289 18.2982 23.3463 18.8308 23.5154 19.3388L34.0974 51.1382C34.259 51.6238 33.8975 52.125 33.3858 52.125H31.6965C31.3743 52.125 31.0882 51.9192 30.9856 51.6138L29.0079 45.7269C28.8369 45.2179 28.36 44.875 27.823 44.875H12.552C12.015 44.875 11.5381 45.2179 11.3671 45.7269L9.38943 51.6138C9.28684 51.9192 9.00066 52.125 8.67848 52.125H6.98923C6.47747 52.125 6.11601 51.6238 6.2776 51.1382L16.8587 19.3416C17.0284 18.8316 16.8433 18.2983 16.4895 17.9439C16.1006 17.5541 15.7846 17.11 15.5412 16.6102C15.1996 15.9091 15.0185 15.1434 15 14.3098C15.0003 13.5877 15.1357 12.9143 15.4046 12.287C15.6757 11.6543 16.0451 11.1053 16.5127 10.6377C16.9803 10.1701 17.5293 9.80072 18.162 9.52959C18.7901 9.26039 19.4644 9.125 20.1875 9.125C20.9106 9.125 21.5849 9.26039 22.213 9.52959C22.8457 9.80072 23.3947 10.1701 23.8623 10.6377C24.3299 11.1053 24.6993 11.6543 24.9704 12.287C25.2396 12.9151 25.375 13.5894 25.375 14.3125ZM20.1875 12.25C19.6279 12.25 19.1402 12.4575 18.7363 12.8613C18.3325 13.2652 18.125 13.7529 18.125 14.3125C18.125 14.8721 18.3325 15.3598 18.7363 15.7637C19.1402 16.1675 19.6279 16.375 20.1875 16.375C20.7471 16.375 21.2348 16.1675 21.6387 15.7637C22.0425 15.3598 22.25 14.8721 22.25 14.3125C22.25 13.7529 22.0425 13.2652 21.6387 12.8613C21.2348 12.4575 20.7471 12.25 20.1875 12.25ZM19.002 22.7917L16.8505 29.2288C16.5799 30.0384 17.1824 30.875 18.0361 30.875H22.3389C23.1926 30.875 23.7951 30.0384 23.5245 29.2288L21.373 22.7917C20.9926 21.6533 19.3824 21.6533 19.002 22.7917ZM25.9617 41.75C26.8161 41.75 27.4187 40.9119 27.1466 40.1019L25.3829 34.8519C25.2119 34.3429 24.735 34 24.198 34H16.177C15.64 34 15.1631 34.3429 14.9921 34.8519L13.2284 40.1019C12.9563 40.9119 13.5589 41.75 14.4133 41.75H25.9617Z" fill="white" stroke="#15375E" stroke-width="0.5" stroke-linejoin="round"/>
</svg>
