<svg width="30" height="52" viewBox="0 0 30 52" fill="none" xmlns="http://www.w3.org/2000/svg">
<path d="M15.9505 15.9629C15.7276 15.6122 15.3778 15.3612 14.9742 15.2623C14.5706 15.1635 14.1444 15.2244 13.7846 15.4323C13.4248 15.6403 13.1593 15.9792 13.0436 16.3783C12.9278 16.7774 12.9707 17.2058 13.1633 17.574L17.1911 24.5662L7.41162 22.9551L15.9344 40.0167C16.1323 40.3857 16.466 40.6632 16.8649 40.7903C17.2639 40.9175 17.6966 40.8844 18.0715 40.698C18.4464 40.5116 18.734 40.1865 18.8734 39.7917C19.0128 39.3969 18.9931 38.9633 18.8183 38.5829L13.1311 27.1762L23.41 28.884L15.9505 15.9629Z" fill="white"/>
<path d="M23.7322 3.69439H26.4711C27.2081 3.69439 27.9149 3.98716 28.4361 4.50831C28.9572 5.02945 29.25 5.73627 29.25 6.47328V48.7488C29.25 49.4858 28.9572 50.1927 28.4361 50.7138C27.9149 51.235 27.2081 51.5277 26.4711 51.5277H3.52889C3.16396 51.5277 2.80261 51.4558 2.46545 51.3162C2.1283 51.1765 1.82196 50.9718 1.56392 50.7138C1.30587 50.4558 1.10118 50.1494 0.96153 49.8123C0.821878 49.4751 0.75 49.1138 0.75 48.7488V22C0.75 21.5858 1.08579 21.25 1.5 21.25H2.72222C3.13644 21.25 3.47222 21.5858 3.47222 22V47.5555C3.47222 48.2459 4.03187 48.8055 4.72222 48.8055H25.2778C25.9681 48.8055 26.5278 48.2459 26.5278 47.5555V7.66661C26.5278 6.97626 25.9681 6.41661 25.2778 6.41661H20.8333C20.4191 6.41661 20.0833 6.08083 20.0833 5.66661V4.44439C20.0833 3.75403 19.5237 3.19439 18.8333 3.19439H11.1667C10.4763 3.19439 9.91667 3.75403 9.91667 4.44439V5.66661C9.91667 6.08083 9.58088 6.41661 9.16667 6.41661H4.72222C4.03187 6.41661 3.47222 6.97626 3.47222 7.66661V14C3.47222 14.4142 3.13644 14.75 2.72222 14.75H1.5C1.08579 14.75 0.75 14.4142 0.75 14V6.47328C0.75 5.73627 1.04277 5.02945 1.56392 4.50831C2.08506 3.98717 2.79188 3.69439 3.52889 3.69439H6.26778C6.77956 3.69439 7.19444 3.27951 7.19444 2.76772C7.19444 2.1589 7.4363 1.57502 7.8668 1.14452C8.2973 0.71402 8.88118 0.472168 9.49 0.472168H20.51C21.1188 0.472168 21.7027 0.71402 22.1332 1.14452C22.5637 1.57502 22.8056 2.1589 22.8056 2.76772C22.8056 3.27951 23.2204 3.69439 23.7322 3.69439Z" fill="white" stroke="#15375E" stroke-width="0.5" stroke-linejoin="round"/>
</svg>
