<svg width="35" height="34" viewBox="0 0 35 34" fill="none" xmlns="http://www.w3.org/2000/svg">
<circle cx="17.5" cy="17" r="17" fill="white"/>
<path d="M17.3333 23.625C17.3333 24.4896 16.6354 25.1875 15.7708 25.1875C14.9062 25.1875 14.2083 24.4896 14.2083 23.625C14.2083 22.7604 14.9062 22.0625 15.7708 22.0625C16.6354 22.0625 17.3333 22.7604 17.3333 23.625ZM22.5417 22.0625C21.6771 22.0625 20.9792 22.7604 20.9792 23.625C20.9792 24.4896 21.6771 25.1875 22.5417 25.1875C23.4062 25.1875 24.1042 24.4896 24.1042 23.625C24.1042 22.7604 23.4062 22.0625 22.5417 22.0625Z" fill="#49C2ED"/>
<path d="M27.2083 12.0937L25.125 20.4271C25.083 20.5969 24.9853 20.7477 24.8474 20.8554C24.7095 20.963 24.5395 21.0213 24.3646 21.0208H13.9479C13.5729 21.0208 13.25 20.75 13.1771 20.375L12.8352 18.7283C12.7321 18.2316 13.1113 17.7656 13.6186 17.7656C14.0053 17.7656 14.3367 18.0423 14.4058 18.4228L14.5937 19.4583H23.75L25.4479 12.6875H13.3646L13.7832 15.0237C13.8691 15.5027 13.5009 15.9427 13.0143 15.9427C12.6364 15.9427 12.3127 15.6723 12.2455 15.3004L11.2083 9.5625H9.78125C9.35417 9.5625 9 9.20833 9 8.78125C9 8.35417 9.35417 8 9.78125 8H11.8646C12.2396 8 12.5625 8.27083 12.6354 8.64583L13.0833 11.125H26.4479C26.5664 11.1255 26.6832 11.1528 26.7896 11.2048C26.896 11.2568 26.9893 11.3323 27.0624 11.4255C27.1356 11.5186 27.1867 11.6272 27.212 11.7429C27.2372 11.8586 27.236 11.9786 27.2083 12.0937Z" fill="#49C2ED"/>
</svg>
