<svg width="67" height="14" viewBox="0 0 67 14" fill="none" xmlns="http://www.w3.org/2000/svg">
<path d="M10.3483 7.07487H10.2427L7.05726 0.334383C6.96927 0.123193 6.75808 0 6.52929 0H0.58077C0.263985 0 0 0.263988 0 0.580773V13.2346C0 13.5514 0.263985 13.8154 0.58077 13.8154H4.85737C5.17415 13.8154 5.43815 13.5514 5.43815 13.2346V6.68769H5.54374L8.95798 13.4986C9.06358 13.6922 9.25716 13.8154 9.46835 13.8154H15.2057C15.5225 13.8154 15.7865 13.5514 15.7865 13.2346V0.580773C15.7865 0.263988 15.5225 0 15.2057 0H10.9291C10.6123 0 10.3483 0.263988 10.3483 0.580773V7.07487Z" fill="#191B36"/>
<path d="M23.4596 7.76121H31.0977C31.2912 7.76121 31.432 7.60282 31.432 7.42683V6.40608C31.432 6.21249 31.2736 6.07169 31.0977 6.07169H23.4596V4.11818H31.4496C31.7664 4.11818 32.0304 3.8542 32.0304 3.53741V0.598349C32.0304 0.281564 31.7664 0.0175781 31.4496 0.0175781H18.1447C17.8279 0.0175781 17.5639 0.281564 17.5639 0.598349V13.2698C17.5639 13.5865 17.8279 13.8329 18.1271 13.8329H31.52C31.8368 13.8329 32.1008 13.5689 32.1008 13.2522V10.4891C32.1008 10.1723 31.8368 9.90831 31.52 9.90831H23.442V7.76121H23.4596Z" fill="#191B36"/>
<path d="M49.7002 5.47334C49.7002 0.66877 46.9547 0 43.3117 0H34.4945C34.1778 0 33.9138 0.263988 33.9138 0.580773V13.2346C33.9138 13.5514 34.1778 13.8154 34.4945 13.8154H39.2287C39.5455 13.8154 39.8095 13.5514 39.8095 13.2346V10.7883H40.8126C41.1294 12.3018 42.3438 13.481 43.8925 13.745C44.0685 13.7802 44.2621 13.8154 44.4733 13.8154H49.137C49.4538 13.8154 49.7178 13.5514 49.7178 13.2346V10.7883C49.7178 10.4715 49.4538 10.2075 49.137 10.2075H47.2363C48.8203 9.55635 49.7002 8.20122 49.7002 5.47334ZM39.7919 4.06541H42.4494C43.1005 4.06541 43.6461 4.57578 43.6989 5.22695C43.8221 6.74048 43.3469 7.25086 42.0446 7.28606H39.7919V4.06541Z" fill="#191B36"/>
<path d="M67 6.82848C67 1.81272 64.5713 0 59.8723 0H52.0759C51.7591 0 51.4951 0.263988 51.4951 0.580773V13.1642C51.4951 13.5338 51.7943 13.8154 52.1463 13.8154H59.8723C64.5889 13.8154 67 12.0026 67 6.98687C67 6.95167 67 6.93408 67 6.91648C67 6.88128 67 6.86368 67 6.82848ZM58.8692 9.57395H57.2852V8.02522V4.2414H58.8692C60.6291 4.2414 61.0867 5.20935 61.1043 6.89888C61.0867 8.6236 60.6291 9.57395 58.8692 9.57395Z" fill="#191B36"/>
</svg>
