<svg width="26" height="26" viewBox="0 0 26 26" fill="none" xmlns="http://www.w3.org/2000/svg">
<path d="M24.7466 24.7465C25.159 24.3341 25.159 23.6654 24.7466 23.253L19.1889 17.6953C18.8802 17.3866 18.8552 16.8868 19.1123 16.5136C20.4056 14.6358 21.0332 12.3676 20.8767 10.0749C20.6991 7.47265 19.525 5.03908 17.5988 3.28041C15.6726 1.52175 13.1425 0.573397 10.5349 0.632647C7.92731 0.691897 5.44292 1.75418 3.59858 3.59852C1.75425 5.44286 0.691958 7.92725 0.632708 10.5349C0.573458 13.1425 1.52181 15.6726 3.28047 17.5988C5.03914 19.525 7.47271 20.699 10.0749 20.8766C12.3677 21.0331 14.6358 20.4055 16.5136 19.1123C16.8869 18.8552 17.3866 18.8801 17.6953 19.1889L23.253 24.7465C23.6655 25.159 24.3342 25.159 24.7466 24.7465ZM2.775 10.7811C2.77501 9.19766 3.24457 7.64976 4.12429 6.33315C5.00403 5.01653 6.25444 3.99035 7.71739 3.38438C9.18034 2.7784 10.7901 2.61985 12.3432 2.92878C13.8962 3.2377 15.3228 4.00022 16.4425 5.11991C17.5622 6.23961 18.3247 7.66618 18.6337 9.21924C18.9426 10.7723 18.784 12.3821 18.1781 13.845C17.5721 15.308 16.5459 16.5584 15.2293 17.4381C13.9127 18.3178 12.3648 18.7874 10.7814 18.7874C8.6587 18.7851 6.62361 17.9408 5.12262 16.4398C3.62167 14.9389 2.77738 12.9038 2.775 10.7811Z" fill="white" stroke="white" stroke-width="0.3"/>
</svg>
