<svg width="59" height="44" viewBox="0 0 59 44" fill="none" xmlns="http://www.w3.org/2000/svg">
<path d="M51.4589 27.1113H40.7301C39.9895 27.1113 39.389 27.7118 39.389 28.4524V36.499C39.389 37.2397 39.9895 37.8401 40.7301 37.8401H51.4589C52.1996 37.8401 52.8 37.2397 52.8 36.499V28.4524C52.8 27.7118 52.1996 27.1113 51.4589 27.1113Z" stroke="white" stroke-width="2" stroke-linecap="round" stroke-linejoin="round"/>
<path d="M50.7884 27.1112V25.0996C50.7884 23.8547 50.2939 22.6608 49.4136 21.7806C48.5334 20.9003 47.3395 20.4058 46.0946 20.4058C44.8497 20.4058 43.6558 20.9003 42.7755 21.7806C41.8953 22.6608 41.4008 23.8547 41.4008 25.0996V27.1112" stroke="white" stroke-width="2" stroke-linecap="round" stroke-linejoin="round"/>
<path d="M46.0946 33.1463C46.4649 33.1463 46.7651 32.8461 46.7651 32.4757C46.7651 32.1054 46.4649 31.8052 46.0946 31.8052C45.7242 31.8052 45.424 32.1054 45.424 32.4757C45.424 32.8461 45.7242 33.1463 46.0946 33.1463Z" fill="white" stroke="white" stroke-width="2" stroke-linecap="round" stroke-linejoin="round"/>
<rect x="1" y="1" width="56.6667" height="42" rx="4" stroke="white" stroke-width="2"/>
<path d="M1.46667 12.4668H11" stroke="white" stroke-width="2"/>
<path d="M13.2 12.4668H57.2" stroke="white" stroke-width="2"/>
</svg>
