<svg width="34" height="34" viewBox="0 0 34 34" fill="none" xmlns="http://www.w3.org/2000/svg">
<circle cx="17" cy="17" r="17" fill="white"/>
<path d="M10.6577 12.9051C10.6539 12.8354 10.6364 12.7672 10.6063 12.7043C10.5761 12.6413 10.5339 12.585 10.482 12.5384C10.43 12.4918 10.3694 12.4559 10.3036 12.4327C10.2378 12.4095 10.1681 12.3995 10.0984 12.4033C10.0288 12.407 9.9605 12.4245 9.89758 12.4546C9.83465 12.4848 9.77828 12.527 9.73168 12.5789C9.68508 12.6309 9.64916 12.6915 9.62598 12.7573C9.60279 12.8231 9.5928 12.8928 9.59657 12.9625L10.6577 12.9051ZM11.3419 10.1901C11.2489 10.2929 11.1997 10.428 11.2049 10.5665C11.2102 10.7051 11.2694 10.8361 11.3699 10.9316C11.4704 11.0271 11.6042 11.0796 11.7429 11.0777C11.8815 11.0759 12.0139 11.0199 12.1119 10.9218L11.3419 10.1901ZM15.5537 22.0334C15.6127 22.0715 15.6788 22.0974 15.7479 22.1098C15.8171 22.1222 15.8881 22.1207 15.9567 22.1055C16.0253 22.0902 16.0902 22.0615 16.1476 22.021C16.205 21.9805 16.2539 21.929 16.2913 21.8695C16.3286 21.81 16.3539 21.7437 16.3654 21.6743C16.377 21.605 16.3747 21.5341 16.3587 21.4657C16.3427 21.3973 16.3132 21.3327 16.272 21.2757C16.2309 21.2188 16.1788 21.1705 16.1189 21.1338L15.5537 22.0334ZM18.705 22.2077C18.567 22.1788 18.4233 22.206 18.3053 22.2832C18.1873 22.3603 18.1049 22.4812 18.076 22.6192C18.0472 22.7572 18.0743 22.901 18.1515 23.0189C18.2287 23.1369 18.3496 23.2194 18.4876 23.2482L18.705 22.2077ZM19.0819 19.0102L19.4042 18.6702L18.6335 17.9385L18.3112 18.2785L19.0819 19.0102ZM20.4659 18.5272L21.8189 19.3063L22.3487 18.3855L20.9958 17.6063L20.4659 18.5272ZM22.0802 20.9213L21.0737 21.9803L21.8444 22.7127L22.8502 21.653L22.0802 20.9213ZM13.9209 19.3042C11.1754 16.4135 10.715 13.9747 10.6577 12.9051L9.59657 12.9625C9.6674 14.2729 10.2227 16.9532 13.151 20.0359L13.9209 19.3042ZM14.8956 14.603L15.0982 14.3891L14.3282 13.6574L14.1249 13.8713L14.8956 14.603ZM15.2583 11.7257L14.3651 10.4628L13.4974 11.0762L14.3899 12.3392L15.2583 11.7257ZM14.5103 14.2368C14.3828 14.1139 14.2534 13.9923 14.1235 13.872L14.1221 13.8734L14.12 13.8755C14.1074 13.8885 14.0956 13.9023 14.0846 13.9166C14.0151 14.0085 13.9602 14.1105 13.9217 14.2191C13.8522 14.4139 13.8154 14.6717 13.8622 14.9933C13.9542 15.6251 14.3686 16.4744 15.4502 17.6141L16.2216 16.8817C15.2101 15.8171 14.9601 15.1619 14.9133 14.8389C14.8907 14.683 14.9133 14.6016 14.9225 14.5754L14.9282 14.5619C14.9224 14.5712 14.9158 14.58 14.9084 14.5881C14.9042 14.5929 14.9 14.5984 14.8956 14.603L14.5103 14.2368ZM15.4502 17.6141C16.529 18.7503 17.3436 19.1958 17.9648 19.2971C18.2843 19.3488 18.5428 19.307 18.7383 19.2298C18.8466 19.1873 18.9473 19.1275 19.0365 19.0527L19.062 19.0287L19.0719 19.0187C19.0736 19.0173 19.0753 19.0159 19.0769 19.0145L19.079 19.0124L19.0797 19.0109C19.0797 19.0109 19.0812 19.0102 18.6958 18.644C18.3105 18.2785 18.3112 18.2778 18.3112 18.2771L18.3126 18.2764L18.314 18.2743L18.3183 18.2707C18.329 18.2604 18.3401 18.2505 18.3516 18.241C18.3579 18.2367 18.3572 18.2382 18.348 18.2417C18.3339 18.2474 18.2701 18.27 18.1355 18.2481C17.8508 18.2013 17.2367 17.9506 16.2216 16.8817L15.4502 17.6141ZM14.3651 10.4628C13.6468 9.44703 12.2103 9.27491 11.3419 10.1901L12.1119 10.9218C12.4823 10.5322 13.1347 10.5627 13.4974 11.0762L14.3651 10.4628ZM21.0737 21.9803C20.8761 22.1885 20.6699 22.3004 20.4688 22.3203L20.5729 23.3771C21.102 23.3254 21.5306 23.0435 21.8444 22.7127L21.0737 21.9803ZM15.0982 14.3891C15.7839 13.6673 15.832 12.5382 15.2583 11.7257L14.3899 12.3392C14.6888 12.762 14.6434 13.3259 14.3282 13.6574L15.0982 14.3891ZM21.8189 19.3063C22.4004 19.6414 22.5144 20.4644 22.0802 20.9213L22.8502 21.653C23.7746 20.6798 23.5047 19.0513 22.3487 18.3855L21.8189 19.3063ZM19.4042 18.6702C19.6769 18.3827 20.1026 18.3182 20.4659 18.5272L20.9958 17.6063C20.2173 17.1587 19.2533 17.2869 18.6335 17.9385L19.4042 18.6702ZM16.1189 21.1338C15.4226 20.6961 14.681 20.1039 13.9209 19.3042L13.151 20.0359C13.9684 20.8965 14.778 21.5461 15.5537 22.0334L16.1189 21.1338ZM20.4688 22.3203C19.8788 22.3721 19.2836 22.3341 18.705 22.2077L18.4876 23.2482C19.1721 23.3965 19.8753 23.4399 20.5729 23.3771L20.4688 22.3203Z" fill="#49C2ED"/>
</svg>
